<svg xmlns="http://www.w3.org/2000/svg" width="1200" height="630" viewBox="0 0 1200 630"><rect width="1200" height="630" fill="#080a0d"/><g opacity=".13" stroke="#fff"><path d="M0 90h1200M0 180h1200M0 270h1200M0 360h1200M0 450h1200M0 540h1200M120 0v630M240 0v630M360 0v630M480 0v630M600 0v630M720 0v630M840 0v630M960 0v630M1080 0v630"/></g><g fill="#d7ff43"><path d="M82 76h55v45H82zM147 76h55v20h-55zM147 106h55v80h-55zM82 131h55v55H82z"/></g><text x="82" y="310" fill="#f7f8f8" font-family="Arial,sans-serif" font-size="76" font-weight="600">Fabrique Agents</text><text x="82" y="390" fill="#d7ff43" font-family="Arial,sans-serif" font-size="45">Vos processus métier. Leur nouvel agent.</text><text x="82" y="475" fill="#9299a3" font-family="Arial,sans-serif" font-size="27">Conseil · conception · déploiement · exploitation</text></svg>